# xmcd
#
# Track frame offsets:
#	150
#	6750
#	14163
#	21450
#	27320
#	34605
#	42268
#	49898
#	57703
#	65338
#	71918
#	79805
#	86063
#	92280
#	100138
#	107418
#	114695
#	121960
#	129473
#	137240
#
# Disc length: 1925 seconds
#
# Revision: 1
# Processed by: cddbd v1.5PL3 Copyright (c) Steve Scherf et al.
# Submitted via: CDex 1.50Beta5
#
DISCID=18078314
DTITLE=80-Note Disc Music Box - Vol.2 オルフェウス名曲集
DYEAR=1996
DGENRE=Easy Listening -> General Easy Listening
TTITLE0=アイ・ガット・リズム
TTITLE1=雨に唄えば
TTITLE2=雨にぬれても
TTITLE3=マイ・フェイバレット・ジングス
TTITLE4=エンターテイナー
TTITLE5=ムーン・リバー
TTITLE6=アンチェインド・メロディー
TTITLE7=虹の彼方に
TTITLE8=星に願いを
TTITLE9=いつか王子様が
TTITLE10=君住む街角
TTITLE11=オール・アイ・アスク・オブ・ユー
TTITLE12=ア・ホール・ニュー・ワールド
TTITLE13=スターダスト
TTITLE14=明日に架ける橋
TTITLE15=ウィア・オール・アローン
TTITLE16=エンドレス・ラブ
TTITLE17=すべてをあなたに
TTITLE18=いとしのエリー
TTITLE19=スウィート・メモリーズ
EXTD=
EXTT0=
EXTT1=
EXTT2=
EXTT3=
EXTT4=
EXTT5=
EXTT6=
EXTT7=
EXTT8=
EXTT9=
EXTT10=
EXTT11=
EXTT12=
EXTT13=
EXTT14=
EXTT15=
EXTT16=
EXTT17=
EXTT18=
EXTT19=
PLAYORDER=
